<svg width="144" height="59" viewBox="0 0 144 59" fill="none" xmlns="http://www.w3.org/2000/svg">
<path d="M32.9662 46H41.6225L25.5912 0.90625H16.5287L0.528748 46H8.685L12.56 34.3438H29.1537L32.9662 46ZM20.6225 9.375H21.1537L27.2787 28.125H14.435L20.6225 9.375ZM61.2075 59C71.1762 59 77.4887 54.0312 77.4887 46.1875V11.8438H70.02V17.3125H69.4887C67.6137 13.5938 63.5512 11.2812 58.895 11.2812C50.1762 11.2812 44.77 18.0938 44.77 28.5625C44.77 38.8125 50.145 45.5 58.77 45.5C63.52 45.5 67.2387 43.5 69.2075 39.8125H69.7387V46.3125C69.7387 50.6562 66.645 53.2188 61.3325 53.2188C57.0825 53.2188 54.3325 51.6875 53.8325 49.2812H46.0512C46.6762 55.1562 52.4262 59 61.2075 59ZM61.2075 39.3438C55.8012 39.3438 52.7387 35.1562 52.7387 28.5312C52.7387 21.9375 55.8012 17.75 61.2075 17.75C66.5825 17.75 69.8637 21.9375 69.8637 28.5625C69.8637 35.1562 66.6137 39.3438 61.2075 39.3438ZM86.855 46H94.605V26.1562C94.605 21.3438 98.105 18.2188 103.136 18.2188C104.449 18.2188 106.511 18.4375 107.105 18.6562V11.5938C106.386 11.4062 105.011 11.2812 103.886 11.2812C99.48 11.2812 95.7925 13.7812 94.855 17.1562H94.3237V11.8438H86.855V46ZM127.19 46.6875C137.409 46.6875 143.627 40 143.627 28.9062C143.627 17.875 137.377 11.1875 127.19 11.1875C117.034 11.1875 110.752 17.9062 110.752 28.9062C110.752 40 116.94 46.6875 127.19 46.6875ZM127.19 40.3438C121.784 40.3438 118.69 36.1562 118.69 28.9375C118.69 21.7188 121.784 17.5312 127.19 17.5312C132.565 17.5312 135.659 21.7188 135.659 28.9375C135.659 36.1562 132.596 40.3438 127.19 40.3438Z" fill="#09B44D"/>
</svg>
