<svg width="529" height="157" viewBox="0 0 529 157" fill="none" xmlns="http://www.w3.org/2000/svg">
<g clip-path="url(#clip0_0_3)">
<path d="M63.6631 99.1367H23.751L14.7871 124H1.83203L38.2109 28.7344H49.2031L85.6475 124H72.7578L63.6631 99.1367ZM27.5459 88.7988H59.9336L43.707 44.2412L27.5459 88.7988ZM93.6953 88.0137C93.6953 76.9779 96.2471 68.2103 101.351 61.7109C106.454 55.168 113.215 51.8965 121.634 51.8965C130.271 51.8965 137.01 54.9499 141.852 61.0566L142.44 53.2051H153.498V122.299C153.498 131.459 150.772 138.678 145.319 143.956C139.91 149.234 132.626 151.873 123.466 151.873C118.362 151.873 113.368 150.783 108.482 148.602C103.597 146.421 99.8675 143.433 97.2939 139.638L103.575 132.375C108.766 138.787 115.113 141.993 122.615 141.993C128.504 141.993 133.084 140.336 136.355 137.021C139.671 133.705 141.328 129.038 141.328 123.019V116.934C136.486 122.517 129.878 125.309 121.503 125.309C113.215 125.309 106.498 121.972 101.351 115.298C96.2471 108.624 93.6953 99.5293 93.6953 88.0137ZM105.865 89.3877C105.865 97.3701 107.501 103.651 110.772 108.231C114.044 112.768 118.624 115.036 124.513 115.036C132.146 115.036 137.751 111.568 141.328 104.633V72.3105C137.62 65.5495 132.059 62.1689 124.644 62.1689C118.755 62.1689 114.153 64.459 110.838 69.0391C107.523 73.6191 105.865 80.402 105.865 89.3877ZM206.038 64.0664C204.206 63.7611 202.221 63.6084 200.084 63.6084C192.145 63.6084 186.758 66.9889 183.923 73.75V124H171.818V53.2051H183.596L183.792 61.3838C187.761 55.0589 193.388 51.8965 200.673 51.8965C203.028 51.8965 204.817 52.2018 206.038 52.8125V64.0664ZM212.712 87.9482C212.712 81.0127 214.064 74.7751 216.769 69.2354C219.517 63.6956 223.312 59.4209 228.153 56.4111C233.039 53.4014 238.6 51.8965 244.838 51.8965C254.478 51.8965 262.264 55.2334 268.196 61.9072C274.172 68.5811 277.16 77.4577 277.16 88.5371V89.3877C277.16 96.2796 275.83 102.474 273.169 107.97C270.552 113.422 266.779 117.675 261.85 120.729C256.964 123.782 251.337 125.309 244.969 125.309C235.372 125.309 227.586 121.972 221.61 115.298C215.678 108.624 212.712 99.791 212.712 88.7988V87.9482ZM224.882 89.3877C224.882 97.2393 226.692 103.542 230.312 108.297C233.977 113.051 238.862 115.429 244.969 115.429C251.119 115.429 256.005 113.03 259.625 108.231C263.245 103.39 265.056 96.6286 265.056 87.9482C265.056 80.1839 263.202 73.9027 259.494 69.1045C255.83 64.2627 250.945 61.8418 244.838 61.8418C238.862 61.8418 234.042 64.2191 230.378 68.9736C226.714 73.7282 224.882 80.5329 224.882 89.3877ZM349.002 82.7139H311.314V108.231H355.545V124H291.686V28.7344H355.414V44.6338H311.314V67.3379H349.002V82.7139ZM402.327 89.126H386.689V124H367.061V28.7344H402.458C413.712 28.7344 422.392 31.2425 428.499 36.2588C434.606 41.2751 437.659 48.3633 437.659 57.5234C437.659 64.0228 436.242 69.4535 433.406 73.8154C430.615 78.1338 426.362 81.5798 420.647 84.1533L441.258 123.084V124H420.189L402.327 89.126ZM386.689 73.2266H402.523C407.452 73.2266 411.269 71.9834 413.974 69.4971C416.678 66.9671 418.03 63.4993 418.03 59.0938C418.03 54.6009 416.743 51.0677 414.17 48.4941C411.64 45.9206 407.736 44.6338 402.458 44.6338H386.689V73.2266ZM472.271 90.4346V124H452.643V28.7344H489.807C496.96 28.7344 503.242 30.043 508.65 32.6602C514.103 35.2773 518.29 39.0068 521.213 43.8486C524.135 48.6468 525.597 54.1211 525.597 60.2715C525.597 69.6061 522.391 76.9779 515.979 82.3867C509.61 87.752 500.777 90.4346 489.479 90.4346H472.271ZM472.271 74.5352H489.807C494.997 74.5352 498.945 73.3138 501.649 70.8711C504.397 68.4284 505.771 64.9388 505.771 60.4023C505.771 55.735 504.397 51.9619 501.649 49.083C498.901 46.2041 495.106 44.721 490.265 44.6338H472.271V74.5352Z" fill="#51B159"/>
</g>
<defs>
<clipPath id="clip0_0_3">
<rect width="529" height="157" fill="white"/>
</clipPath>
</defs>
</svg>
